PathFileType	4	(X/Y/Z)	Patient4_TMGait_0pt3_03_left_19.trc.trc
DataRate	CameraRate	NumFrames	NumMarkers	Units	OrigDataRate	OrigDataStartFrame	OrigNumFrames
58.091286307054	58.091286307054	5	33	mm	58.091286307054	1	       141
Frame#	Time	Sacral			L.Shoulder			Chest			R.Shoulder			Neck			R.ASIS			L.ASIS			R.Thigh.Superior			R.Thigh.Lateral			R.Thigh.Inferior			R.Patella			L.Thigh.Superior			L.Thigh.Lateral			L.Thigh.Inferior			L.Patella			L.Shank.Superior			L.Shank.Lateral			L.Shank.Inferior			R.Shank.Superior			R.Shank.Lateral			R.Shank.Inferior			R.Heel			R.Midfoot.Superior			R.Midfoot.Lateral			R.Toe			L.Heel			L.Midfoot.Lateral			L.Midfoot.Superior			L.Toe			L.Elbow			L.Wrist			R.Elbow			R.Wrist			
		X1	Y1	Z1	X2	Y2	Z2	X3	Y3	Z3	X4	Y4	Z4	X5	Y5	Z5	X6	Y6	Z6	X7	Y7	Z7	X8	Y8	Z8	X9	Y9	Z9	X10	Y10	Z10	X11	Y11	Z11	X12	Y12	Z12	X13	Y13	Z13	X14	Y14	Z14	X15	Y15	Z15	X16	Y16	Z16	X17	Y17	Z17	X18	Y18	Z18	X19	Y19	Z19	X20	Y20	Z20	X21	Y21	Z21	X22	Y22	Z22	X23	Y23	Z23	X24	Y24	Z24	X25	Y25	Z25	X26	Y26	Z26	X27	Y27	Z27	X28	Y28	Z28	X29	Y29	Z29	X30	Y30	Z30	X31	Y31	Z31	X32	Y32	Z32	X33	Y33	Z33	

1	33.070000000000	550.468107584078	992.431898121296	498.292765685822	744.375917122364	1418.596115699945	313.148167161207	848.657504864803	1343.346485406012	469.620879835015	778.010562966761	1420.346991995623	647.612174440851	746.698095020106	1479.631095203583	470.154641083485	789.730270615967	925.239619142760	597.940109222364	753.288925046239	951.998939076779	327.161562383161	845.057265349775	733.893265288302	549.766394414525	779.384011960629	614.830505838098	608.641661898815	850.527297532764	572.055641235325	516.977556553493	859.469517495285	476.938999411507	518.616126051174	839.440511387310	768.425689812852	353.582306804939	795.645288039748	642.378579525087	274.346903959617	896.923582378747	578.773483395077	338.499853884965	908.492267658419	488.836046999217	325.754293575355	840.547332629433	424.571206977425	312.016717687356	696.722085953931	384.790847147639	266.411834496718	689.308635864931	249.597490902727	307.203039072907	815.963645059593	388.706584659365	528.086923682866	741.121727305940	293.975958900898	600.062879670091	755.558656697450	197.047063358613	531.658408027919	597.230735242452	43.389796680960	521.417592820180	772.246461329432	95.156287106166	538.832066619218	687.711278044442	36.773407008252	587.438470427042	894.087668651460	41.200673087958	555.664781707529	502.662008008187	177.386916546067	350.537331942043	554.485482643362	143.886395026069	260.757102838469	661.374745072423	150.217779206364	275.363349699203	737.125931613125	44.154803127403	225.383890135069	712.093039262429	1061.905994553099	205.492858597953	787.656951295508	812.029345072180	194.561454198761	781.421015904419	1082.436659711523	791.181578427879	1003.407568898711	950.278099140599	785.957709908378	
2	33.087214285714	550.945180909208	990.416632490832	501.403780234849	744.042205380891	1416.436016380340	314.896386201195	849.565871056357	1340.865139314245	470.411801927850	780.648720096035	1417.707307676553	649.105814897349	747.873841149785	1477.418794180408	471.912049521138	791.330310084251	923.013680089327	598.648527965446	752.459175212000	950.173914409723	328.239055717396	846.411405348721	732.027728962738	549.304295388700	781.798739951875	612.604116528701	608.501729451314	852.344640099179	570.293248332285	515.897591363459	861.203304921553	474.466253700536	517.347637279720	840.169819234279	768.813929623079	354.519702566043	798.082528302676	642.238822277814	275.309422616106	900.321845590371	580.391486047714	339.634600408335	913.965532814104	491.393741187150	326.522640009336	848.957116250828	425.461719678369	312.810127383355	707.462318252826	378.766606789597	268.165245893780	707.418026885763	243.733362280229	308.686735011437	816.408876063016	386.605427526347	527.100375682602	740.137353971652	293.065554694074	599.320872280500	752.598165096470	196.007326077286	531.061883922921	592.133119576853	43.750768295341	521.351175352198	767.118159637951	95.053516290813	538.676427568869	682.445235483852	36.879137437534	587.262853716804	888.852730683220	40.732949359823	555.799875173068	525.991398146148	161.285083497768	353.125096599795	578.742104525530	131.445762975519	262.840977963491	684.579598479531	143.991924967540	276.921746593589	765.800311230864	43.431269353149	225.923870816601	704.835330819357	1060.637224000973	207.288281239474	768.270418610687	808.781724010560	194.996222595167	792.468923071677	1078.777599072602	788.976013585706	1019.542717087734	959.394794669785	778.219153040931	
3	33.104428571429	551.423615428660	988.467377645415	504.441935724233	743.711323479788	1414.350205894172	316.629398177435	850.488238708291	1338.425042762851	471.154938321989	783.334128231340	1415.096913719067	650.561494116287	749.077279378837	1475.253992034457	473.660687596832	792.894320981244	920.832470328146	599.308317620795	751.652627701432	948.387729607893	329.255763988669	847.689481632257	730.134395910849	548.872152084302	784.030288713921	610.388266011643	608.330449832738	854.001399519409	568.512565731437	514.836573963970	862.738463586028	471.996608697948	516.082900695445	840.857075530078	769.198728769896	355.460297916422	800.440877144852	642.091848364178	276.290977336698	903.576846260501	581.976482157729	340.791915959109	919.306885643610	493.981793063071	327.367259539000	857.340740775000	426.394427981729	313.647648134327	718.441774878222	372.646542696891	269.746027830370	725.857658355610	237.897454266616	310.069132453361	816.657435817875	384.504867641421	526.104760429157	738.995218548377	292.150398953984	598.571510323750	749.514515716910	194.967367772854	530.462866648235	586.942738788939	44.102660287400	521.272008309527	761.898054072613	94.950754385929	538.514340618649	677.097966556912	36.987655588005	587.090838007719	883.532966137493	40.280999968673	555.932101336393	549.846933172363	145.183293797578	355.370193466773	603.632507039513	118.991232165619	264.684284023360	708.300152277900	137.788050421617	278.386982368078	795.029596439890	42.806346571304	226.578952873365	697.238512647079	1059.585891293226	209.018472255033	748.990825246088	805.848365758778	195.474128509239	803.715634626209	1075.211229517327	786.597502451699	1035.732744105562	968.840940097387	770.207485264048	
4	33.121642857143	551.901557397734	986.700801648658	507.282604491035	743.400121960317	1412.460391759087	318.286223976727	851.418887948825	1336.139904011688	471.794410086426	786.039340331636	1412.630768105259	651.908814825366	750.300978114992	1473.245573139035	475.340608420402	794.368244261302	918.796820233219	599.874989861914	750.910378773489	946.736297178167	330.149865374883	848.792820419901	728.263187738568	548.494168778924	785.891380693454	608.269610244791	608.125720913355	855.331878391342	566.761278150881	513.843516861008	863.884315410526	469.612640636868	514.873622693051	841.455868520415	769.577734923391	356.365467400905	802.593035313874	641.951076934568	277.257404803605	906.501791199939	583.468961239329	341.935149643263	924.275360597227	496.564002849459	328.294470519655	865.450557170734	427.393142338392	314.526403512445	729.531113767074	366.554704031053	271.017205689559	744.367563587006	232.297527757011	311.271596487452	816.554536423427	382.474759229658	525.130739022557	737.603269824729	291.264052367466	597.843020506303	746.290774010430	193.967406736563	529.883716775469	581.722920737032	44.436982511029	521.180872048108	756.652106747202	94.854513768262	538.351478425944	671.743001020084	37.101551424665	586.932495191917	878.197554130634	39.864098802485	556.056123704492	573.971571463284	129.527953440895	357.043645980819	628.943638582935	106.875382086776	266.138747948856	732.267961425448	131.829115614999	279.698995087956	824.429571832708	42.424393897516	227.455015542091	689.317882038601	1058.934774795876	210.611497203926	730.359356736043	803.506447912835	196.015607167858	815.020715021614	1071.929618107223	783.993181707458	1051.601733899345	978.656474786999	761.934950685366	
5	33.138857142857	552.384376393222	985.230729009265	509.823603620176	743.124350140359	1410.880469242768	319.812741311070	852.359513100227	1334.120058628296	472.278680431507	788.753716839880	1410.424207600841	653.083497442337	751.544849105512	1471.499415225399	476.895892407501	795.713349361088	917.001044924060	600.312905524275	750.270283443799	945.318055316656	330.871519504877	849.628732230748	726.464998035282	548.186360569329	787.218518285660	606.332292860066	607.895718040088	856.182893981248	565.086133590734	512.962053392042	864.462976888069	467.391204328407	513.769971392802	841.928516472037	769.959447840964	357.198775508542	804.422419383753	641.838860113914	278.171831243335	908.936025156484	584.823539837490	343.023411999790	928.662348196955	499.122237438787	329.302422497778	873.079209623208	428.494887576682	315.444484579057	740.640482607248	360.609562229950	271.867851851489	762.754197020815	227.130859143069	312.242996725497	815.955315053501	380.584475092956	524.212347652638	735.867809121386	290.441859885160	597.166242483116	742.895429702938	193.047836684109	529.347245238172	576.511046847842	44.750712529666	521.080989016524	751.419192225351	94.771443273936	538.194874756539	666.423909703727	37.222825086396	586.794978388927	872.887353553570	39.495936591591	556.167755022300	598.186326515870	114.707230240017	357.973574593305	654.542631756663	95.414797443799	267.107788765655	756.298739729567	126.330899279388	280.833512836456	853.725174001721	42.444432793940	228.683387447339	681.097633567524	1058.848709882350	212.024537402675	712.785265469734	801.980669172377	196.639197072347	826.295750629201	1069.123238683484	781.116709555935	1066.859012734146	988.942198545875	753.387363435741	
